# File created by Blade
# Date/Time:  Tue Jan 27 19:54:25 2015
# Frame Rate: 120.000 fps
#------------------------------------------------------
:FULLY-SPECIFIED
:DEGREES
3800
root 4.956788 35.135897 -1.681251 54.226797 -19.627076 -44.477680
Spine 1.790518 28.495698 5.473224
Head -49.925619 4.595261 9.815409
LeftShoulder -18.436312 -3.757447 36.302844
LeftArm -19.571322 -63.509512 -43.685878
LeftForeArm -81.152131 -0.000000 138.365440
LeftHand 8.966335 -0.000000 -36.673794
LeftHandThumb1 -26.253704 0.000000 33.147579
RightShoulder -9.622881 -2.616999 -19.154382
RightArm 25.476726 -39.277416 77.177793
RightForeArm -28.081006 -0.000000 23.077588
RightHand 17.711069 -0.000000 10.813108
RightHandThumb1 -24.326973 -0.000000 -32.862282
LeftUpLeg -23.530815 18.456190 31.499271
LeftLeg -6.706455 -0.000000 0.000000
LeftFoot -12.947446 19.390009 -14.687629
LeftToeBase 18.489891 -0.000000 -0.000000
RightUpLeg 7.398963 -39.202503 -34.493889
RightLeg 120.068507 -0.000000 -0.000000
RightFoot 38.038632 -16.155544 16.865089
RightToeBase 17.756490 -0.000000 -0.000000
3801
root 4.995549 35.136365 -1.688300 54.421434 -19.940246 -44.676755
Spine 1.876805 28.646000 5.502346
Head -49.803735 4.546247 9.522300
LeftShoulder -18.428372 -3.678227 36.154378
LeftArm -19.670087 -63.582124 -43.627622
LeftForeArm -81.200012 -0.000000 138.408573
LeftHand 8.908541 -0.000000 -36.630216
LeftHandThumb1 -26.253704 0.000000 33.147579
RightShoulder -9.637925 -2.549800 -19.281651
RightArm 25.591098 -39.298735 77.115901
RightForeArm -28.053801 0.000000 23.157160
RightHand 17.700133 -0.000000 10.735555
RightHandThumb1 -24.326973 -0.000000 -32.862282
LeftUpLeg -23.396357 18.373474 31.589121
LeftLeg -6.656000 -0.000000 0.000000
LeftFoot -13.141735 19.618745 -14.868769
LeftToeBase 18.542902 -0.000000 -0.000000
RightUpLeg 6.601669 -39.877103 -34.269500
RightLeg 119.900499 -0.000000 -0.000000
RightFoot 38.164062 -15.917670 16.986331
RightToeBase 17.943967 -0.000000 -0.000000
3802
root 5.032027 35.140629 -1.698459 54.616850 -20.246032 -44.926936
Spine 1.977751 28.757539 5.554412
Head -49.639872 4.586773 9.300206
LeftShoulder -18.471535 -3.650764 36.097927
LeftArm -19.871735 -63.536065 -43.543383
LeftForeArm -81.194925 -0.000000 138.466196
LeftHand 8.985232 -0.000000 -36.705058
LeftHandThumb1 -26.253704 0.000000 33.147579
RightShoulder -9.550336 -2.399638 -19.396148
RightArm 25.616353 -39.309819 77.082087
RightForeArm -27.984830 -0.000000 23.230155
RightHand 17.714514 -0.000000 10.645851
RightHandThumb1 -24.326973 -0.000000 -32.862282
LeftUpLeg -23.236424 18.323652 31.725202
LeftLeg -6.579393 -0.000000 0.000000
LeftFoot -13.337086 19.837904 -15.040866
LeftToeBase 18.622433 -0.000000 -0.000000
RightUpLeg 5.745132 -40.625903 -33.918228
RightLeg 119.761013 -0.000000 -0.000000
RightFoot 38.314512 -15.839954 17.116355
RightToeBase 18.190453 -0.000000 -0.000000
3803
root 5.070774 35.149219 -1.711991 54.845963 -20.509375 -45.229260
Spine 2.074517 28.867272 5.678373
Head -49.477634 4.692820 9.052456
LeftShoulder -18.553853 -3.525452 36.005964
LeftArm -19.841901 -63.525144 -43.668465
LeftForeArm -81.155452 -0.000000 138.532486
LeftHand 8.952628 -0.000000 -36.726738
LeftHandThumb1 -26.253704 0.000000 33.147579
RightShoulder -9.469761 -2.355938 -19.482653
RightArm 25.781956 -39.286181 76.931574
RightForeArm -27.951261 -0.000000 23.312790
RightHand 17.704698 -0.000000 10.539784
RightHandThumb1 -24.326973 -0.000000 -32.862282
LeftUpLeg -23.113825 18.276351 31.933324
LeftLeg -6.455397 -0.000000 0.000000
LeftFoot -13.552924 20.070817 -15.263896
LeftToeBase 18.288175 -0.000000 -0.000000
RightUpLeg 4.836650 -41.449146 -33.453412
RightLeg 119.622780 -0.000000 -0.000000
RightFoot 38.480657 -15.810895 17.315764
RightToeBase 18.587644 -0.000000 -0.000000
3804
root 5.107932 35.153685 -1.724139 55.040487 -20.797976 -45.508322
Spine 2.211526 28.969556 5.772230
Head -49.339037 4.780987 8.856618
LeftShoulder -18.626832 -3.444897 35.934094
LeftArm -19.933266 -63.517694 -43.663512
LeftForeArm -81.144699 -0.000000 138.589886
LeftHand 8.977416 0.000000 -36.824997
LeftHandThumb1 -26.253704 0.000000 33.147579
RightShoulder -9.392243 -2.336174 -19.578748
RightArm 25.929894 -39.227795 76.825773
RightForeArm -27.979806 -0.000000 23.411557
RightHand 17.737838 0.000000 10.259106
RightHandThumb1 -24.326973 -0.000000 -32.862282
LeftUpLeg -22.962220 18.278676 32.060475
LeftLeg -6.378056 -0.000000 0.000000
LeftFoot -13.789732 20.300854 -15.442580
LeftToeBase 18.504462 -0.000000 -0.000000
RightUpLeg 3.979227 -42.330321 -33.028457
RightLeg 119.511427 -0.000000 -0.000000
RightFoot 38.773848 -15.455963 17.185803
RightToeBase 17.165146 -0.000000 -0.000000
